<svg id="Calque_1" data-name="Calque 1" xmlns="http://www.w3.org/2000/svg" xmlns:xlink="http://www.w3.org/1999/xlink" viewBox="0 0 1950 1080"><defs><style>.cls-1{fill:url(#Dégradé_sans_nom_73);}</style><linearGradient id="Dégradé_sans_nom_73" x1="536.83" y1="708.3" x2="1613.77" y2="-368.64" gradientUnits="userSpaceOnUse"><stop offset="0" stop-color="#255372"/><stop offset="0.45" stop-color="#386f8d"/><stop offset="0.74" stop-color="#4a90af"/><stop offset="1" stop-color="#2a92bf"/></linearGradient></defs><path class="cls-1" d="M-54,46c15.58,148.24,197.4,240.67,231,257,168.15,81.71,225.4,7.38,466,85,126.83,40.92,120.76,64.74,214,81,179.75,31.34,222.45-53.71,375-39,194.71,18.77,204.57,165,428,203,43.43,7.39,222.7,37.91,321-55,127.14-120.17,90.67-420.18-29-596C1555.53-600.53-22.88-214.7-54,5-54.84,10.9-56,26.91-54,46Z"/></svg>