<svg id="Calque_2" data-name="Calque 2" xmlns="http://www.w3.org/2000/svg" viewBox="0 0 638.56 354"><defs><style>.cls-1{fill:none;}.cls-1,.cls-2{stroke:#fdfdfd;stroke-miterlimit:10;stroke-width:13px;}.cls-2{fill:#82caf0;}.cls-3{fill:#fdfdfe;}</style></defs><path class="cls-1" d="M229.56,115.09C210.11,53,161.3,12.05,114.71,13.3,45.83,15.14-2.64,108.86,12.53,178.47,29.43,256,124.78,299.89,193.84,289.1,299.41,272.61,330.74,123,387.44,133.53c60.61,11.28,49.44,185.17,124.45,206.27,38,10.7,80.78-21.86,115.42-57"/><path class="cls-2" d="M402.43,273.29c-1.9-11.72-11.49-64.11-46.77-129.31-3.36-6.24-7-12.62-10.85-19.07-6.67-11.77-27.28-18.53-27.28-18.53s-16-6-42-4.08-48.83,3.33-48.83,3.33l-.39,0c-3.12.21-24.48,1.62-48.47,3-26,1.48-41.13,9.47-41.13,9.47A68,68,0,0,0,112.06,140c-22,50.6-31.8,94.51-35.75,122.93-2.23,15.93-2.6,27-2.24,31.65,1,13,6.28,25.5,6.28,25.5s14.52,28.1,35.76,17.32c7.42-4.34,22-30,33.16-48,1.93-3.11,3.76-6,5.42-8.48C166,264,176.62,265.49,176.62,265.49l55.87-3.62,4.32-.29,4.31-.28,14.18-.92L297,257.69s10.37-2.82,23.73,12.48,25.58,41.49,45.55,51c21.48,8.85,33.23-21.79,33.23-21.79S404.55,286.36,402.43,273.29Z"/><path class="cls-1" d="M627.31,282.84c-35.84,34-77.5,66.09-115.53,55.38-75-21.1-63.73-193.41-124.34-204.69-11.37-2.11-21.68,2.14-31.78,10.45-28.93,23.8-64.09,86.93-108.43,122.5"/><circle class="cls-3" cx="627.47" cy="282.63" r="6.47"/></svg>