<svg id="Calque_2" data-name="Calque 2" xmlns="http://www.w3.org/2000/svg" viewBox="0 0 595.89 287.11"><defs><style>.cls-1{fill:#fdfdfe;}.cls-2{fill:none;}.cls-2,.cls-3{stroke:#fdfdfd;stroke-miterlimit:10;stroke-width:13px;}.cls-3{fill:#82caf0;}</style></defs><circle class="cls-1" cx="584.78" cy="219.09" r="6.49"/><path class="cls-2" d="M186.79,58.2c-49.07-64-106.68-53-141.23-24.42S5.38,99.11,16.12,140c18.4,70,117.86,96.68,170.67,73.44a80.71,80.71,0,0,0,17.78-10.78"/><path class="cls-3" d="M359.76,209.73c-1.9-11.72-11.49-64.1-46.76-129.3q-5.06-9.37-10.86-19.08c-6.67-11.76-27.27-18.53-27.27-18.53s-16.06-6-42-4.08S184,42.07,184,42.07l-.4,0c-3.12.2-24.47,1.61-48.47,3-26,1.49-41.12,9.47-41.12,9.47A68,68,0,0,0,69.4,76.43c-22,50.6-31.81,94.5-35.76,122.92-2.23,15.94-2.59,27-2.24,31.66,1,13,6.28,25.5,6.28,25.5S52.2,284.6,73.44,273.83c7.42-4.35,22-30,33.17-48,1.92-3.12,3.75-6,5.41-8.49,11.29-16.9,21.93-15.44,21.93-15.44l55.87-3.62,4.32-.28,4.31-.28,14.19-.92,41.68-2.7s10.37-2.81,23.74,12.48,25.57,41.5,45.54,51c21.48,8.85,33.23-21.8,33.23-21.8S361.88,222.8,359.76,209.73Z"/><path class="cls-2" d="M584.64,219.28c-35.84,34-77.5,66.09-115.53,55.39-75-21.1-63.73-193.41-124.34-204.7-11.36-2.11-21.68,2.15-31.77,10.46-28.94,23.79-64.1,86.92-108.43,122.5"/></svg>