<svg xmlns="http://www.w3.org/2000/svg" viewBox="0 0 595.89 287.11"><defs><style>.cls-1{fill:#fdfdfe;}.cls-2,.cls-5{fill:none;}.cls-2,.cls-3{stroke:#fdfdfd;}.cls-2,.cls-3,.cls-5,.cls-6{stroke-miterlimit:10;stroke-width:13px;}.cls-3{fill:#82caf0;}.cls-4{fill:#2a2d34;}.cls-5,.cls-6{stroke:#2a2d34;}.cls-6{fill:#336a85;}</style></defs><g id="Calque_2" data-name="Calque 2"><circle class="cls-1" cx="584.78" cy="219.09" r="6.49"/><path class="cls-2" d="M186.79,58.2c-49.07-64-106.68-53-141.23-24.42S5.38,99.11,16.12,140c18.4,70,117.86,96.68,170.67,73.44a80.71,80.71,0,0,0,17.78-10.78"/><path class="cls-3" d="M359.76,209.73c-1.9-11.72-11.49-64.1-46.76-129.3q-5.06-9.37-10.86-19.08c-6.67-11.76-27.27-18.53-27.27-18.53s-16.06-6-42-4.08S184,42.07,184,42.07l-.4,0c-3.12.2-24.47,1.61-48.47,3-26,1.49-41.12,9.47-41.12,9.47A68,68,0,0,0,69.4,76.43c-22,50.6-31.81,94.5-35.76,122.92-2.23,15.94-2.59,27-2.24,31.66,1,13,6.28,25.5,6.28,25.5S52.2,284.6,73.44,273.83c7.42-4.35,22-30,33.17-48,1.92-3.12,3.75-6,5.41-8.49,11.29-16.9,21.93-15.44,21.93-15.44l55.87-3.62,4.32-.28,4.31-.28,14.19-.92,41.68-2.7s10.37-2.81,23.74,12.48,25.57,41.5,45.54,51c21.48,8.85,33.23-21.8,33.23-21.8S361.88,222.8,359.76,209.73Z"/><path class="cls-2" d="M584.64,219.28c-35.84,34-77.5,66.09-115.53,55.39-75-21.1-63.73-193.41-124.34-204.7-11.36-2.11-21.68,2.15-31.77,10.46-28.94,23.79-64.1,86.92-108.43,122.5"/></g><g id="Calque_1" data-name="Calque 1"><circle class="cls-4" cx="584.78" cy="219.09" r="6.49"/><path class="cls-5" d="M186.79,58.2c-49.07-64-106.68-53-141.23-24.42S5.38,99.11,16.12,140c18.4,70,117.86,96.68,170.67,73.44a80.71,80.71,0,0,0,17.78-10.78"/><path class="cls-6" d="M359.76,209.43c-1.9-11.68-11.49-63.9-46.76-128.9-3.37-6.22-7-12.58-10.86-19-6.67-11.73-27.27-18.47-27.27-18.47s-16.06-5.94-42-4.07S184,42.3,184,42.3l-.4,0c-3.12.2-24.47,1.6-48.47,3-26,1.48-41.12,9.44-41.12,9.44A67.89,67.89,0,0,0,69.4,76.55c-22,50.44-31.81,94.2-35.76,122.53C31.41,215,31.05,226,31.4,230.64c1,12.93,6.28,25.42,6.28,25.42s14.52,28,35.76,17.26c7.42-4.33,22-29.93,33.17-47.82,1.92-3.1,3.75-6,5.41-8.45C123.3,200.2,134,201.65,134,201.65l55.87-3.6,4.32-.29,4.31-.28,14.19-.91,41.68-2.69s10.37-2.81,23.74,12.44,25.57,41.36,45.54,50.84c21.48,8.82,33.23-21.72,33.23-21.72S361.88,222.46,359.76,209.43Z"/><path class="cls-5" d="M584.8,219.07c-36.36,34.71-77.66,66.27-115.69,55.6-75-21-63.73-193.45-124.34-204.7-11.36-2.1-22.55,2.31-32.59,11.34-27.81,25-64.09,86.65-108.43,122.11"/></g></svg>