<svg id="Calque_1" data-name="Calque 1" xmlns="http://www.w3.org/2000/svg" viewBox="0 0 638.56 354"><defs><style>.cls-1{fill:none;}.cls-1,.cls-2{stroke:#2a2d34;stroke-miterlimit:10;stroke-width:13px;}.cls-2{fill:#336a85;}.cls-3{fill:#2a2d34;}</style></defs><path class="cls-1" d="M229.56,115.29C210.11,53.44,161.3,12.57,114.71,13.82,45.83,15.66-2.64,109.08,12.53,178.47c16.9,77.29,112.15,121.91,181.31,110.28,106-17.84,136.9-165.6,193.6-155.08,60.61,11.24,49.44,184.58,124.45,205.62,38,10.67,81.76-22.44,116.39-57.44"/><path class="cls-2" d="M402.43,273c-1.9-11.69-11.49-63.91-46.77-128.9q-5-9.34-10.85-19c-6.67-11.73-27.28-18.47-27.28-18.47s-16-5.94-42-4.07-48.83,3.32-48.83,3.32l-.39,0c-3.12.21-24.48,1.61-48.47,3-26,1.48-41.13,9.44-41.13,9.44a68,68,0,0,0-24.65,21.81c-22,50.44-31.8,94.21-35.76,122.54-2.22,15.88-2.59,26.91-2.23,31.55,1,12.94,6.28,25.42,6.28,25.42s14.52,28,35.76,17.27c7.42-4.33,22-29.94,33.16-47.82,1.93-3.1,3.76-6,5.42-8.46,11.28-16.85,21.93-15.39,21.93-15.39l55.87-3.61,4.32-.28,4.31-.28,14.18-.92L297,257.43s10.37-2.8,23.73,12.44,25.58,41.37,45.55,50.85C387.75,329.54,399.5,299,399.5,299S404.55,286,402.43,273Z"/><path class="cls-1" d="M628.28,281.85c-34.64,35-78.36,68.11-116.39,57.44-75-21-63.84-194.37-124.45-205.62-11.37-2.1-21.68,2.14-31.78,10.42-28.93,23.72-64.09,86.65-108.43,122.11"/><circle class="cls-3" cx="628.17" cy="281.89" r="6.56"/></svg>